<?xml version="1.0" encoding="UTF-8" standalone="no"?>
<svg
   xmlns:dc="http://purl.org/dc/elements/1.1/"
   xmlns:cc="http://creativecommons.org/ns#"
   xmlns:rdf="http://www.w3.org/1999/02/22-rdf-syntax-ns#"
   xmlns:svg="http://www.w3.org/2000/svg"
   xmlns="http://www.w3.org/2000/svg"
   xmlns:sodipodi="http://sodipodi.sourceforge.net/DTD/sodipodi-0.dtd"
   xmlns:inkscape="http://www.inkscape.org/namespaces/inkscape"
   version="1.1"
   id="Capa_1"
   x="0px"
   y="0px"
   viewBox="0 0 58 58"
   style="enable-background:new 0 0 58 58;"
   xml:space="preserve"
   sodipodi:docname="chat-svgrepo-com.svg"
   inkscape:version="1.0 (4035a4fb49, 2020-05-01)"><metadata
   id="metadata51"><rdf:RDF><cc:Work
       rdf:about=""><dc:format>image/svg+xml</dc:format><dc:type
         rdf:resource="http://purl.org/dc/dcmitype/StillImage" /></cc:Work></rdf:RDF></metadata><defs
   id="defs49" /><sodipodi:namedview
   inkscape:document-rotation="0"
   pagecolor="#ffffff"
   bordercolor="#666666"
   borderopacity="1"
   objecttolerance="10"
   gridtolerance="10"
   guidetolerance="10"
   inkscape:pageopacity="0"
   inkscape:pageshadow="2"
   inkscape:window-width="1920"
   inkscape:window-height="986"
   id="namedview47"
   showgrid="false"
   inkscape:zoom="13.793103"
   inkscape:cx="29"
   inkscape:cy="29"
   inkscape:window-x="-11"
   inkscape:window-y="-11"
   inkscape:window-maximized="1"
   inkscape:current-layer="g6" />
<g
   id="g14">
	<path
   style="fill:#8626e5;fill-opacity:1"
   d="M33.224,10.494H13.776C6.168,10.494,0,16.661,0,24.27v11.345c0,6.929,5.306,12.732,12,13.716v-3.992   c0-0.553,0.448-1,1-1s1,0.447,1,1v4.154l0,0h0v7.446c0,0.503,0.384,0.755,0.74,0.399l1.521-1.521   c4.116-4.116,9.699-6.325,15.52-6.325h1.443C40.832,49.494,47,43.223,47,35.615V24.27C47,16.661,40.832,10.494,33.224,10.494z"
   id="path2" />
	<g
   id="g6">
		<path
   style="fill:#c0ccc6;fill-opacity:1"
   d="M44.224,0.494H24.776c-6.371,0-11.717,4.332-13.292,10.206c0.747-0.125,1.509-0.206,2.292-0.206    h19.448C40.832,10.494,47,16.661,47,24.27v11.345c0,1.259-0.183,2.476-0.5,3.639C52.957,38.061,58,32.37,58,25.615V14.27    C58,6.661,51.832,0.494,44.224,0.494z"
   id="path4" />
	</g>
	<path
   style="fill:#FFFFFF;"
   d="M29,23.506H18c-0.552,0-1-0.447-1-1s0.448-1,1-1h11c0.552,0,1,0.447,1,1S29.552,23.506,29,23.506z"
   id="path8" />
	<path
   style="fill:#FFFFFF;"
   d="M34,30.506H13c-0.552,0-1-0.447-1-1s0.448-1,1-1h21c0.552,0,1,0.447,1,1S34.552,30.506,34,30.506z"
   id="path10" />
	<path
   style="fill:#FFFFFF;"
   d="M34,37.506H13c-0.552,0-1-0.447-1-1s0.448-1,1-1h21c0.552,0,1,0.447,1,1S34.552,37.506,34,37.506z"
   id="path12" />
</g>
<g
   id="g16">
</g>
<g
   id="g18">
</g>
<g
   id="g20">
</g>
<g
   id="g22">
</g>
<g
   id="g24">
</g>
<g
   id="g26">
</g>
<g
   id="g28">
</g>
<g
   id="g30">
</g>
<g
   id="g32">
</g>
<g
   id="g34">
</g>
<g
   id="g36">
</g>
<g
   id="g38">
</g>
<g
   id="g40">
</g>
<g
   id="g42">
</g>
<g
   id="g44">
</g>
</svg>
